<svg    version="1.1" id="Layer_1" xmlns="http://www.w3.org/2000/svg" xmlns:xlink="http://www.w3.org/1999/xlink" x="0px" y="0px"
	 width="100%" viewBox="0 0 3000 1000" enable-background="new 0 0 3000 1000" xml:space="preserve" shape-rendering="geometricPrecision">
         <filter id="smooth">
         <feGaussianBlur in="SourceGraphic" stdDeviation="1" />
         </filter>
         <image x="0" y="0" width="100%" height="100%" xlink:href="logo.svg" filter="url(#smooth)" />
<path fill="#79797C" opacity="1.000000" stroke="none" 
	d="
M2117.000000,1001.000000 
	C1411.333374,1001.000000 706.166687,1001.000000 1.000000,1001.000000 
	C1.000000,667.666687 1.000000,334.333344 1.000000,1.000000 
	C1001.000000,1.000000 2001.000000,1.000000 3001.000000,1.000000 
	C3001.000000,334.333344 3001.000000,667.666687 3001.000000,1001.000000 
	C2706.500000,1001.000000 2412.000000,1001.000000 2117.000000,1001.000000 
M2686.546875,665.143127 
	C2706.159424,665.143127 2725.771729,665.143127 2745.657227,665.143127 
	C2745.769287,663.279053 2745.914307,661.987122 2745.914551,660.695251 
	C2745.922119,615.865906 2746.272217,571.031921 2745.692139,526.210022 
	C2745.520996,513.001404 2743.774902,499.588257 2740.870605,486.692352 
	C2736.448730,467.062103 2725.891846,451.131104 2707.124268,442.026703 
	C2670.343018,424.183899 2627.299561,435.251556 2602.920166,468.627808 
	C2601.918945,469.998566 2600.852539,471.321503 2599.816406,472.666779 
	C2599.477539,472.531464 2599.138916,472.396149 2598.800049,472.260834 
	C2598.800049,425.387085 2598.800049,378.513306 2598.800049,331.635956 
	C2575.360840,331.635956 2552.491699,331.635956 2529.636719,331.635956 
	C2529.636719,442.981171 2529.636719,553.876038 2529.636719,664.707520 
	C2552.922363,664.707520 2575.807617,664.707520 2598.962891,664.707520 
	C2598.962891,662.290710 2598.962646,660.304932 2598.963135,658.319153 
	C2598.974854,617.156189 2598.938232,575.993103 2599.028564,534.830322 
	C2599.055176,522.667786 2602.329102,511.433319 2610.049316,501.823853 
	C2620.178711,489.215698 2633.682861,485.488281 2649.005615,488.376587 
	C2663.816406,491.168335 2671.316895,501.683685 2674.017334,515.603577 
	C2675.622559,523.877136 2676.279785,532.447388 2676.330078,540.890320 
	C2676.562500,580.052124 2676.433594,619.216187 2676.434082,658.379395 
	C2676.434082,660.494995 2676.434082,662.610535 2676.434082,665.143127 
	C2679.941650,665.143127 2682.754639,665.143127 2686.546875,665.143127 
M159.663788,371.152496 
	C121.670128,401.206085 123.228607,455.718018 142.218567,484.361115 
	C153.516159,501.401550 169.294678,513.224792 187.334320,522.024292 
	C204.523880,530.409058 222.211426,537.767334 239.499496,545.958008 
	C249.488800,550.690674 258.685760,556.783142 265.440796,565.831055 
	C275.198303,578.900513 272.672058,596.019287 258.848358,604.612061 
	C252.506485,608.554138 245.004028,611.578491 237.659180,612.797424 
	C201.130264,618.859741 168.030533,609.822998 138.121567,588.361816 
	C135.900452,586.768005 133.767914,585.050720 130.718597,582.722229 
	C130.718597,585.811279 130.718613,587.611694 130.718613,589.412170 
	C130.718582,606.909729 130.718521,624.407227 130.718506,641.904785 
	C130.718491,653.883789 130.739365,653.829041 141.825333,658.051270 
	C163.242203,666.208069 185.582321,669.404785 208.309509,670.404663 
	C233.764679,671.524658 258.982269,669.798035 283.368469,661.902039 
	C337.552521,644.357605 361.963593,588.716858 337.980316,537.721436 
	C329.099884,518.839050 314.020935,505.710358 296.087555,496.209137 
	C278.175110,486.718964 259.434723,478.800812 241.151642,469.997528 
	C230.334579,464.789093 219.649353,459.237610 211.493576,450.063873 
	C200.382935,437.566467 201.762543,421.021729 215.332184,411.289368 
	C220.480621,407.596863 226.664871,404.593994 232.814728,403.178162 
	C265.891449,395.563202 296.842560,402.380585 326.216766,418.299194 
	C327.980286,419.254883 329.680145,420.327972 332.117584,421.763367 
	C332.117584,401.220703 331.912048,381.896240 332.257294,362.581604 
	C332.347382,357.543549 330.890503,355.369934 326.062439,353.897125 
	C291.661133,343.402863 256.664398,341.696564 221.255844,346.556335 
	C199.005569,349.610138 178.209335,356.702179 159.663788,371.152496 
M1521.970093,600.477234 
	C1534.173096,632.925903 1556.982056,654.396057 1590.009277,664.332520 
	C1620.933838,673.636414 1652.301392,673.589050 1683.023560,663.603943 
	C1719.030273,651.901428 1742.370117,627.174438 1753.004761,590.780762 
	C1759.031738,570.155701 1760.089600,549.013062 1756.844849,527.898315 
	C1750.281738,485.189545 1727.133545,455.180084 1685.792358,441.349579 
	C1653.095337,430.411011 1619.698486,431.148346 1587.089966,442.256927 
	C1556.276611,452.753937 1533.879883,473.187592 1522.682129,504.122406 
	C1511.256348,535.686401 1511.429932,567.750610 1521.970093,600.477234 
M1964.500122,349.255615 
	C1903.395142,349.255615 1842.290283,349.255615 1780.866211,349.255615 
	C1780.866211,368.781647 1780.866211,387.697479 1780.866211,407.280823 
	C1810.637207,407.280823 1840.190308,407.280823 1870.256470,407.280823 
	C1870.256470,493.522034 1870.256470,579.098145 1870.256470,664.854736 
	C1894.194702,664.854736 1917.608154,664.854736 1941.621094,664.854736 
	C1941.621094,578.995178 1941.621094,493.422028 1941.621094,407.114014 
	C1971.906982,407.114014 2001.603516,407.114014 2031.495728,407.114014 
	C2031.601562,404.922485 2031.732910,403.447845 2031.734375,401.973083 
	C2031.749268,386.141754 2031.607544,370.308472 2031.835327,354.480408 
	C2031.895508,350.299957 2030.628906,349.127686 2026.491699,349.167450 
	C2006.162720,349.362732 1985.831055,349.255798 1964.500122,349.255615 
M552.400513,451.083588 
	C536.528137,440.222961 518.630981,435.999969 499.751282,434.358063 
	C447.722046,429.833252 400.206940,460.379486 384.415771,509.654510 
	C374.982086,539.091675 374.695496,569.143616 383.437897,598.766113 
	C393.234100,631.959412 415.080597,654.317200 448.320831,664.317017 
	C459.829590,667.779297 472.090149,669.634033 484.114502,670.306885 
	C509.878784,671.748535 535.372742,669.317078 559.801941,660.148438 
	C573.928284,654.846619 573.876892,654.709900 573.876892,639.533203 
	C573.876892,627.936829 573.876953,616.340393 573.876953,604.125244 
	C572.355286,604.806458 571.446655,605.118896 570.631287,605.591980 
	C547.765991,618.859009 522.918335,622.762207 496.962128,620.801208 
	C485.383606,619.926392 474.256470,616.994873 464.783417,609.810303 
	C452.520294,600.509766 447.688477,587.629333 446.697235,572.086182 
	C496.034851,572.086182 544.591370,572.086182 594.451904,572.086182 
	C593.604065,554.065735 593.852966,536.528564 591.722717,519.285278 
	C588.302795,491.602661 576.172913,468.220184 552.400513,451.083588 
M2232.676758,613.236877 
	C2213.655273,620.666443 2193.820312,622.823303 2173.761475,620.474121 
	C2164.870361,619.432922 2155.775635,616.599548 2147.730469,612.636902 
	C2133.294922,605.526672 2123.376709,586.319153 2125.628174,571.987671 
	C2174.203369,571.987671 2222.892578,571.987671 2272.854736,571.987671 
	C2271.789307,552.983459 2271.899658,534.584900 2269.468750,516.528564 
	C2266.093018,491.456940 2254.837158,469.964111 2234.531982,454.011475 
	C2217.931641,440.969269 2198.501221,436.108124 2177.854736,434.344849 
	C2125.610352,429.883026 2078.222168,460.711609 2062.356934,510.211243 
	C2054.578125,534.480591 2053.677979,559.423889 2058.192871,584.328064 
	C2065.971191,627.233704 2090.598877,655.315491 2133.304199,666.426270 
	C2153.894043,671.783264 2174.872314,671.510498 2195.859131,669.496155 
	C2214.030518,667.752014 2231.655518,663.812622 2248.259521,655.890869 
	C2251.025635,654.571228 2252.124023,653.028503 2252.081055,649.870789 
	C2251.895020,636.210693 2252.007568,622.546570 2251.991211,608.883911 
	C2251.989502,607.466614 2251.851318,606.049438 2251.767334,604.462219 
	C2245.395996,607.420654 2239.403320,610.203308 2232.676758,613.236877 
M795.609802,464.943146 
	C818.774963,530.346130 841.969971,595.738647 865.020447,661.182068 
	C866.214355,664.571777 867.987244,665.221741 871.206238,665.204956 
	C894.203369,665.085205 917.203125,664.999756 940.197815,665.264221 
	C944.630493,665.315186 946.497498,663.939880 948.010376,659.851196 
	C974.457642,588.379578 1001.071350,516.969604 1027.637329,445.541931 
	C1028.257812,443.873749 1028.745239,442.156097 1029.529663,439.736786 
	C1027.200073,439.736786 1025.577148,439.736816 1023.954285,439.736816 
	C1003.456299,439.736786 982.956299,439.887146 962.461853,439.617218 
	C958.051208,439.559143 956.546082,441.125366 955.466980,445.122223 
	C939.913086,502.731750 920.984924,559.421631 908.296692,616.936340 
	C906.744385,608.730713 905.644348,599.435303 903.188599,590.513000 
	C889.677612,541.424500 875.798584,492.437347 862.190430,443.375336 
	C861.304138,440.180206 859.689270,439.685822 856.867554,439.695770 
	C835.203247,439.772125 813.538574,439.730164 791.874023,439.751770 
	C790.329956,439.753326 788.786072,439.968140 786.825745,440.114990 
	C789.790405,448.561768 792.538757,456.392242 795.609802,464.943146 
M2458.059570,666.607361 
	C2465.427246,664.042786 2472.786377,661.454041 2480.166504,658.925415 
	C2483.170654,657.896057 2483.906738,655.854309 2483.878662,652.795227 
	C2483.736084,637.131592 2483.822021,621.466064 2483.793701,605.801208 
	C2483.791260,604.572998 2483.524902,603.345337 2483.319580,601.588196 
	C2481.377686,602.670593 2479.940674,603.431519 2478.541992,604.257324 
	C2462.010254,614.017761 2444.262939,618.422302 2425.008301,617.074524 
	C2398.698486,615.232910 2378.798584,599.285400 2372.504395,574.006042 
	C2368.732910,558.859131 2368.943115,543.597717 2373.628418,528.622192 
	C2379.574951,509.615479 2392.101807,496.696533 2411.178711,491.036133 
	C2434.940674,483.985657 2457.626953,487.051117 2478.749512,500.336517 
	C2480.191162,501.243347 2481.652588,502.118134 2483.813477,503.441772 
	C2483.813477,487.424530 2483.813232,472.454315 2483.813232,457.484131 
	C2483.813232,443.038879 2483.895996,442.718109 2469.848877,439.103546 
	C2444.604492,432.607758 2418.994629,432.209778 2393.538574,437.215210 
	C2355.574219,444.680084 2326.837158,465.007141 2310.451416,500.737671 
	C2300.437256,522.574707 2298.312012,545.845886 2299.843994,569.637512 
	C2302.735596,614.535034 2332.493896,652.284607 2375.624023,665.119141 
	C2402.644775,673.159912 2429.924561,671.784058 2458.059570,666.607361 
M1189.046143,621.453796 
	C1204.557007,644.576538 1225.823853,659.622986 1252.754150,666.566711 
	C1272.213013,671.583923 1291.984131,671.525696 1311.806763,669.524719 
	C1325.614624,668.130859 1339.073730,665.338257 1351.725708,659.273071 
	C1354.828125,657.785767 1356.087524,656.070007 1356.036621,652.495178 
	C1355.817993,637.172668 1355.949829,621.845276 1355.932861,606.519653 
	C1355.931396,605.092346 1355.782349,603.665222 1355.668701,601.648499 
	C1353.904419,602.570496 1352.603271,603.173462 1351.377319,603.902771 
	C1334.745239,613.796387 1316.897095,618.388000 1297.453613,617.104065 
	C1270.813232,615.344910 1250.558716,598.975342 1244.515503,573.322937 
	C1240.938354,558.138489 1241.169922,542.881348 1246.012329,527.954773 
	C1252.028320,509.410797 1264.392456,496.710754 1283.050171,491.119202 
	C1306.952515,483.955811 1329.799561,486.978516 1351.052856,500.423523 
	C1352.467773,501.318665 1353.903198,502.181396 1355.943604,503.437408 
	C1355.943604,487.373688 1355.943604,472.386963 1355.943604,457.400238 
	C1355.943604,443.052887 1356.017822,442.769745 1341.953369,439.081940 
	C1318.912720,433.040527 1295.473999,432.563049 1272.057739,436.111572 
	C1233.936157,441.888672 1203.942993,460.270111 1185.436646,494.897766 
	C1173.737549,516.788330 1170.764893,540.640137 1171.784912,565.138611 
	C1172.618530,585.158020 1177.779297,603.865112 1189.046143,621.453796 
M713.424683,463.947815 
	C710.598450,469.409027 707.772278,474.870270 704.946045,480.331482 
	C704.603821,480.258881 704.261658,480.186249 703.919434,480.113617 
	C703.919434,466.751038 703.919434,453.388489 703.919434,440.128113 
	C680.553955,440.128113 657.817017,440.128113 634.979675,440.128113 
	C634.979675,515.221558 634.979675,589.924011 634.979675,664.697205 
	C658.181335,664.697205 681.032593,664.697205 704.116516,664.697205 
	C704.116516,662.263306 704.116577,660.271912 704.116577,658.280457 
	C704.117065,625.461853 703.911621,592.641052 704.253479,559.825989 
	C704.346436,550.905884 705.146667,541.770508 707.273865,533.141052 
	C711.578003,515.680115 721.135071,501.983368 739.636597,497.271271 
	C752.197937,494.072052 764.759827,495.229095 776.851685,500.194427 
	C778.318054,500.796539 779.777100,501.416168 781.291016,502.049194 
	C781.570435,501.154633 781.749817,500.847717 781.750366,500.540466 
	C781.784363,481.382935 781.687012,462.223938 781.919495,443.068939 
	C781.968018,439.071289 780.583984,437.475983 776.811951,436.849579 
	C750.598694,432.496033 727.688965,440.877594 713.424683,463.947815 
M1423.500000,665.143127 
	C1439.244751,665.143127 1454.989502,665.143127 1470.813477,665.143127 
	C1470.813477,589.648865 1470.813477,514.925354 1470.813477,440.103394 
	C1447.656860,440.103394 1424.754028,440.103394 1401.796631,440.103394 
	C1401.796631,515.203918 1401.796631,589.933716 1401.796631,665.143127 
	C1408.896484,665.143127 1415.698242,665.143127 1423.500000,665.143127 
M1058.721436,624.499817 
	C1058.721436,637.915894 1058.721436,651.331970 1058.721436,664.806885 
	C1082.240234,664.806885 1104.970337,664.806885 1127.878540,664.806885 
	C1127.878540,589.761841 1127.878540,515.048950 1127.878540,440.179993 
	C1104.741089,440.179993 1081.896484,440.179993 1058.721436,440.179993 
	C1058.721436,501.580048 1058.721436,562.539917 1058.721436,624.499817 
M1416.871460,399.704742 
	C1426.926270,404.400299 1437.422241,405.030884 1448.122681,402.789398 
	C1465.106201,399.231750 1476.659424,385.358368 1476.890503,368.510803 
	C1477.122803,351.562500 1466.562378,337.827148 1449.389038,334.065155 
	C1443.015869,332.669006 1436.149048,332.492340 1429.618164,333.052185 
	C1413.163208,334.462799 1400.301147,345.754181 1397.298340,360.473846 
	C1394.054810,376.373047 1401.112549,390.849243 1416.871460,399.704742 
M1109.114502,401.760284 
	C1110.201416,401.341797 1111.302612,400.956848 1112.373047,400.499817 
	C1126.590332,394.429932 1134.529419,381.754395 1133.974609,366.031433 
	C1133.468140,351.681244 1124.478027,339.129974 1109.869507,335.150604 
	C1102.061401,333.023712 1093.352173,332.367920 1085.316528,333.314270 
	C1070.722168,335.032928 1059.593140,342.950165 1055.323486,357.572113 
	C1051.145142,371.881012 1054.648682,384.761322 1066.331177,394.526215 
	C1078.790161,404.940033 1093.215454,405.792969 1109.114502,401.760284 
M2868.699219,623.976318 
	C2862.409912,606.551880 2847.940674,596.423096 2830.314453,597.106018 
	C2814.016357,597.737488 2799.152832,609.467712 2795.118896,624.882751 
	C2790.739258,641.619324 2797.488525,658.587769 2812.151611,667.704529 
	C2824.589844,675.438110 2841.691162,674.959473 2853.676270,666.542297 
	C2867.301514,656.973389 2872.719238,642.123108 2868.699219,623.976318 
z"/>
<path fill="#FEFEFE" opacity="1.000000" stroke="none" 
	d="
M2686.057129,665.143127 
	C2682.754639,665.143127 2679.941650,665.143127 2676.434082,665.143127 
	C2676.434082,662.610535 2676.434082,660.494995 2676.434082,658.379395 
	C2676.433594,619.216187 2676.562500,580.052124 2676.330078,540.890320 
	C2676.279785,532.447388 2675.622559,523.877136 2674.017334,515.603577 
	C2671.316895,501.683685 2663.816406,491.168335 2649.005615,488.376587 
	C2633.682861,485.488281 2620.178711,489.215698 2610.049316,501.823853 
	C2602.329102,511.433319 2599.055176,522.667786 2599.028564,534.830322 
	C2598.938232,575.993103 2598.974854,617.156189 2598.963135,658.319153 
	C2598.962646,660.304932 2598.962891,662.290710 2598.962891,664.707520 
	C2575.807617,664.707520 2552.922363,664.707520 2529.636719,664.707520 
	C2529.636719,553.876038 2529.636719,442.981171 2529.636719,331.635956 
	C2552.491699,331.635956 2575.360840,331.635956 2598.800049,331.635956 
	C2598.800049,378.513306 2598.800049,425.387085 2598.800049,472.260834 
	C2599.138916,472.396149 2599.477539,472.531464 2599.816406,472.666779 
	C2600.852539,471.321503 2601.918945,469.998566 2602.920166,468.627808 
	C2627.299561,435.251556 2670.343018,424.183899 2707.124268,442.026703 
	C2725.891846,451.131104 2736.448730,467.062103 2740.870605,486.692352 
	C2743.774902,499.588257 2745.520996,513.001404 2745.692139,526.210022 
	C2746.272217,571.031921 2745.922119,615.865906 2745.914551,660.695251 
	C2745.914307,661.987122 2745.769287,663.279053 2745.657227,665.143127 
	C2725.771729,665.143127 2706.159424,665.143127 2686.057129,665.143127 
z"/>
<path fill="#FEFEFF" opacity="1.000000" stroke="none" 
	d="
M159.948303,370.939301 
	C178.209335,356.702179 199.005569,349.610138 221.255844,346.556335 
	C256.664398,341.696564 291.661133,343.402863 326.062439,353.897125 
	C330.890503,355.369934 332.347382,357.543549 332.257294,362.581604 
	C331.912048,381.896240 332.117584,401.220703 332.117584,421.763367 
	C329.680145,420.327972 327.980286,419.254883 326.216766,418.299194 
	C296.842560,402.380585 265.891449,395.563202 232.814728,403.178162 
	C226.664871,404.593994 220.480621,407.596863 215.332184,411.289368 
	C201.762543,421.021729 200.382935,437.566467 211.493576,450.063873 
	C219.649353,459.237610 230.334579,464.789093 241.151642,469.997528 
	C259.434723,478.800812 278.175110,486.718964 296.087555,496.209137 
	C314.020935,505.710358 329.099884,518.839050 337.980316,537.721436 
	C361.963593,588.716858 337.552521,644.357605 283.368469,661.902039 
	C258.982269,669.798035 233.764679,671.524658 208.309509,670.404663 
	C185.582321,669.404785 163.242203,666.208069 141.825333,658.051270 
	C130.739365,653.829041 130.718491,653.883789 130.718506,641.904785 
	C130.718521,624.407227 130.718582,606.909729 130.718613,589.412170 
	C130.718613,587.611694 130.718597,585.811279 130.718597,582.722229 
	C133.767914,585.050720 135.900452,586.768005 138.121567,588.361816 
	C168.030533,609.822998 201.130264,618.859741 237.659180,612.797424 
	C245.004028,611.578491 252.506485,608.554138 258.848358,604.612061 
	C272.672058,596.019287 275.198303,578.900513 265.440796,565.831055 
	C258.685760,556.783142 249.488800,550.690674 239.499496,545.958008 
	C222.211426,537.767334 204.523880,530.409058 187.334320,522.024292 
	C169.294678,513.224792 153.516159,501.401550 142.218567,484.361115 
	C123.228607,455.718018 121.670128,401.206085 159.948303,370.939301 
z"/>
<path fill="#FEFEFE" opacity="1.000000" stroke="none" 
	d="
M1521.859131,600.099548 
	C1511.429932,567.750610 1511.256348,535.686401 1522.682129,504.122406 
	C1533.879883,473.187592 1556.276611,452.753937 1587.089966,442.256927 
	C1619.698486,431.148346 1653.095337,430.411011 1685.792358,441.349579 
	C1727.133545,455.180084 1750.281738,485.189545 1756.844849,527.898315 
	C1760.089600,549.013062 1759.031738,570.155701 1753.004761,590.780762 
	C1742.370117,627.174438 1719.030273,651.901428 1683.023560,663.603943 
	C1652.301392,673.589050 1620.933838,673.636414 1590.009277,664.332520 
	C1556.982056,654.396057 1534.173096,632.925903 1521.859131,600.099548 
M1684.809204,578.151672 
	C1687.942017,562.499084 1688.227417,546.778748 1686.012939,530.984802 
	C1682.117310,503.201935 1665.910767,488.407410 1638.346069,487.525665 
	C1615.083374,486.781525 1597.451416,498.855835 1589.903076,520.805420 
	C1585.165649,534.580994 1584.388916,548.781494 1585.551636,563.185059 
	C1586.526001,575.254395 1588.821411,586.956970 1595.492920,597.311462 
	C1607.908813,616.581421 1639.119995,623.587158 1661.361450,612.185913 
	C1674.951782,605.219482 1681.021973,592.946777 1684.809204,578.151672 
z"/>
<path fill="#FEFEFE" opacity="1.000000" stroke="none" 
	d="
M1965.000244,349.255615 
	C1985.831055,349.255798 2006.162720,349.362732 2026.491699,349.167450 
	C2030.628906,349.127686 2031.895508,350.299957 2031.835327,354.480408 
	C2031.607544,370.308472 2031.749268,386.141754 2031.734375,401.973083 
	C2031.732910,403.447845 2031.601562,404.922485 2031.495728,407.114014 
	C2001.603516,407.114014 1971.906982,407.114014 1941.621094,407.114014 
	C1941.621094,493.422028 1941.621094,578.995178 1941.621094,664.854736 
	C1917.608154,664.854736 1894.194702,664.854736 1870.256470,664.854736 
	C1870.256470,579.098145 1870.256470,493.522034 1870.256470,407.280823 
	C1840.190308,407.280823 1810.637207,407.280823 1780.866211,407.280823 
	C1780.866211,387.697479 1780.866211,368.781647 1780.866211,349.255615 
	C1842.290283,349.255615 1903.395142,349.255615 1965.000244,349.255615 
z"/>
<path fill="#FEFEFE" opacity="1.000000" stroke="none" 
	d="
M552.692200,451.292389 
	C576.172913,468.220184 588.302795,491.602661 591.722717,519.285278 
	C593.852966,536.528564 593.604065,554.065735 594.451904,572.086182 
	C544.591370,572.086182 496.034851,572.086182 446.697235,572.086182 
	C447.688477,587.629333 452.520294,600.509766 464.783417,609.810303 
	C474.256470,616.994873 485.383606,619.926392 496.962128,620.801208 
	C522.918335,622.762207 547.765991,618.859009 570.631287,605.591980 
	C571.446655,605.118896 572.355286,604.806458 573.876953,604.125244 
	C573.876953,616.340393 573.876892,627.936829 573.876892,639.533203 
	C573.876892,654.709900 573.928284,654.846619 559.801941,660.148438 
	C535.372742,669.317078 509.878784,671.748535 484.114502,670.306885 
	C472.090149,669.634033 459.829590,667.779297 448.320831,664.317017 
	C415.080597,654.317200 393.234100,631.959412 383.437897,598.766113 
	C374.695496,569.143616 374.982086,539.091675 384.415771,509.654510 
	C400.206940,460.379486 447.722046,429.833252 499.751282,434.358063 
	C518.630981,435.999969 536.528137,440.222961 552.692200,451.292389 
M454.633972,529.568726 
	C479.262268,529.568726 503.890533,529.568726 529.323303,529.568726 
	C528.812683,524.006287 528.598083,519.055786 527.867981,514.182556 
	C525.207703,496.426117 515.228882,484.941772 500.207367,482.057709 
	C472.912994,476.817291 445.409851,501.020050 446.790741,529.568604 
	C449.064850,529.568604 451.375153,529.568604 454.633972,529.568726 
z"/>
<path fill="#FEFEFF" opacity="1.000000" stroke="none" 
	d="
M2233.043701,613.111450 
	C2239.403320,610.203308 2245.395996,607.420654 2251.767334,604.462219 
	C2251.851318,606.049438 2251.989502,607.466614 2251.991211,608.883911 
	C2252.007568,622.546570 2251.895020,636.210693 2252.081055,649.870789 
	C2252.124023,653.028503 2251.025635,654.571228 2248.259521,655.890869 
	C2231.655518,663.812622 2214.030518,667.752014 2195.859131,669.496155 
	C2174.872314,671.510498 2153.894043,671.783264 2133.304199,666.426270 
	C2090.598877,655.315491 2065.971191,627.233704 2058.192871,584.328064 
	C2053.677979,559.423889 2054.578125,534.480591 2062.356934,510.211243 
	C2078.222168,460.711609 2125.610352,429.883026 2177.854736,434.344849 
	C2198.501221,436.108124 2217.931641,440.969269 2234.531982,454.011475 
	C2254.837158,469.964111 2266.093018,491.456940 2269.468750,516.528564 
	C2271.899658,534.584900 2271.789307,552.983459 2272.854736,571.987671 
	C2222.892578,571.987671 2174.203369,571.987671 2125.628174,571.987671 
	C2123.376709,586.319153 2133.294922,605.526672 2147.730469,612.636902 
	C2155.775635,616.599548 2164.870361,619.432922 2173.761475,620.474121 
	C2193.820312,622.823303 2213.655273,620.666443 2233.043701,613.111450 
M2202.269287,501.283600 
	C2195.054688,484.095245 2177.868652,479.362885 2163.029541,481.504578 
	C2145.684326,484.008026 2135.840820,495.936646 2129.251465,510.919250 
	C2126.781738,516.534912 2125.666748,522.746277 2123.789551,529.181885 
	C2152.349609,529.181885 2179.552002,529.181885 2207.024414,529.181885 
	C2207.395752,519.540161 2206.072510,510.587952 2202.269287,501.283600 
z"/>
<path fill="#FEFEFF" opacity="1.000000" stroke="none" 
	d="
M795.448486,464.582947 
	C792.538757,456.392242 789.790405,448.561768 786.825745,440.114990 
	C788.786072,439.968140 790.329956,439.753326 791.874023,439.751770 
	C813.538574,439.730164 835.203247,439.772125 856.867554,439.695770 
	C859.689270,439.685822 861.304138,440.180206 862.190430,443.375336 
	C875.798584,492.437347 889.677612,541.424500 903.188599,590.513000 
	C905.644348,599.435303 906.744385,608.730713 908.296692,616.936340 
	C920.984924,559.421631 939.913086,502.731750 955.466980,445.122223 
	C956.546082,441.125366 958.051208,439.559143 962.461853,439.617218 
	C982.956299,439.887146 1003.456299,439.736786 1023.954285,439.736816 
	C1025.577148,439.736816 1027.200073,439.736786 1029.529663,439.736786 
	C1028.745239,442.156097 1028.257812,443.873749 1027.637329,445.541931 
	C1001.071350,516.969604 974.457642,588.379578 948.010376,659.851196 
	C946.497498,663.939880 944.630493,665.315186 940.197815,665.264221 
	C917.203125,664.999756 894.203369,665.085205 871.206238,665.204956 
	C867.987244,665.221741 866.214355,664.571777 865.020447,661.182068 
	C841.969971,595.738647 818.774963,530.346130 795.448486,464.582947 
z"/>
<path fill="#FEFEFE" opacity="1.000000" stroke="none" 
	d="
M2457.654297,666.715576 
	C2429.924561,671.784058 2402.644775,673.159912 2375.624023,665.119141 
	C2332.493896,652.284607 2302.735596,614.535034 2299.843994,569.637512 
	C2298.312012,545.845886 2300.437256,522.574707 2310.451416,500.737671 
	C2326.837158,465.007141 2355.574219,444.680084 2393.538574,437.215210 
	C2418.994629,432.209778 2444.604492,432.607758 2469.848877,439.103546 
	C2483.895996,442.718109 2483.813232,443.038879 2483.813232,457.484131 
	C2483.813232,472.454315 2483.813477,487.424530 2483.813477,503.441772 
	C2481.652588,502.118134 2480.191162,501.243347 2478.749512,500.336517 
	C2457.626953,487.051117 2434.940674,483.985657 2411.178711,491.036133 
	C2392.101807,496.696533 2379.574951,509.615479 2373.628418,528.622192 
	C2368.943115,543.597717 2368.732910,558.859131 2372.504395,574.006042 
	C2378.798584,599.285400 2398.698486,615.232910 2425.008301,617.074524 
	C2444.262939,618.422302 2462.010254,614.017761 2478.541992,604.257324 
	C2479.940674,603.431519 2481.377686,602.670593 2483.319580,601.588196 
	C2483.524902,603.345337 2483.791260,604.572998 2483.793701,605.801208 
	C2483.822021,621.466064 2483.736084,637.131592 2483.878662,652.795227 
	C2483.906738,655.854309 2483.170654,657.896057 2480.166504,658.925415 
	C2472.786377,661.454041 2465.427246,664.042786 2457.654297,666.715576 
z"/>
<path fill="#FEFEFE" opacity="1.000000" stroke="none" 
	d="
M1188.861694,621.142883 
	C1177.779297,603.865112 1172.618530,585.158020 1171.784912,565.138611 
	C1170.764893,540.640137 1173.737549,516.788330 1185.436646,494.897766 
	C1203.942993,460.270111 1233.936157,441.888672 1272.057739,436.111572 
	C1295.473999,432.563049 1318.912720,433.040527 1341.953369,439.081940 
	C1356.017822,442.769745 1355.943604,443.052887 1355.943604,457.400238 
	C1355.943604,472.386963 1355.943604,487.373688 1355.943604,503.437408 
	C1353.903198,502.181396 1352.467773,501.318665 1351.052856,500.423523 
	C1329.799561,486.978516 1306.952515,483.955811 1283.050171,491.119202 
	C1264.392456,496.710754 1252.028320,509.410797 1246.012329,527.954773 
	C1241.169922,542.881348 1240.938354,558.138489 1244.515503,573.322937 
	C1250.558716,598.975342 1270.813232,615.344910 1297.453613,617.104065 
	C1316.897095,618.388000 1334.745239,613.796387 1351.377319,603.902771 
	C1352.603271,603.173462 1353.904419,602.570496 1355.668701,601.648499 
	C1355.782349,603.665222 1355.931396,605.092346 1355.932861,606.519653 
	C1355.949829,621.845276 1355.817993,637.172668 1356.036621,652.495178 
	C1356.087524,656.070007 1354.828125,657.785767 1351.725708,659.273071 
	C1339.073730,665.338257 1325.614624,668.130859 1311.806763,669.524719 
	C1291.984131,671.525696 1272.213013,671.583923 1252.754150,666.566711 
	C1225.823853,659.622986 1204.557007,644.576538 1188.861694,621.142883 
z"/>
<path fill="#FFFFFF" opacity="1.000000" stroke="none" 
	d="
M713.627930,463.645721 
	C727.688965,440.877594 750.598694,432.496033 776.811951,436.849579 
	C780.583984,437.475983 781.968018,439.071289 781.919495,443.068939 
	C781.687012,462.223938 781.784363,481.382935 781.750366,500.540466 
	C781.749817,500.847717 781.570435,501.154633 781.291016,502.049194 
	C779.777100,501.416168 778.318054,500.796539 776.851685,500.194427 
	C764.759827,495.229095 752.197937,494.072052 739.636597,497.271271 
	C721.135071,501.983368 711.578003,515.680115 707.273865,533.141052 
	C705.146667,541.770508 704.346436,550.905884 704.253479,559.825989 
	C703.911621,592.641052 704.117065,625.461853 704.116577,658.280457 
	C704.116577,660.271912 704.116516,662.263306 704.116516,664.697205 
	C681.032593,664.697205 658.181335,664.697205 634.979675,664.697205 
	C634.979675,589.924011 634.979675,515.221558 634.979675,440.128113 
	C657.817017,440.128113 680.553955,440.128113 703.919434,440.128113 
	C703.919434,453.388489 703.919434,466.751038 703.919434,480.113617 
	C704.261658,480.186249 704.603821,480.258881 704.946045,480.331482 
	C707.772278,474.870270 710.598450,469.409027 713.627930,463.645721 
z"/>
<path fill="#FEFEFE" opacity="1.000000" stroke="none" 
	d="
M1423.000000,665.143127 
	C1415.698242,665.143127 1408.896484,665.143127 1401.796631,665.143127 
	C1401.796631,589.933716 1401.796631,515.203918 1401.796631,440.103394 
	C1424.754028,440.103394 1447.656860,440.103394 1470.813477,440.103394 
	C1470.813477,514.925354 1470.813477,589.648865 1470.813477,665.143127 
	C1454.989502,665.143127 1439.244751,665.143127 1423.000000,665.143127 
z"/>
<path fill="#FFFFFF" opacity="1.000000" stroke="none" 
	d="
M1058.721436,623.999756 
	C1058.721436,562.539917 1058.721436,501.580048 1058.721436,440.179993 
	C1081.896484,440.179993 1104.741089,440.179993 1127.878540,440.179993 
	C1127.878540,515.048950 1127.878540,589.761841 1127.878540,664.806885 
	C1104.970337,664.806885 1082.240234,664.806885 1058.721436,664.806885 
	C1058.721436,651.331970 1058.721436,637.915894 1058.721436,623.999756 
z"/>
<path fill="#FEFEFE" opacity="1.000000" stroke="none" 
	d="
M1416.553223,399.509644 
	C1401.112549,390.849243 1394.054810,376.373047 1397.298340,360.473846 
	C1400.301147,345.754181 1413.163208,334.462799 1429.618164,333.052185 
	C1436.149048,332.492340 1443.015869,332.669006 1449.389038,334.065155 
	C1466.562378,337.827148 1477.122803,351.562500 1476.890503,368.510803 
	C1476.659424,385.358368 1465.106201,399.231750 1448.122681,402.789398 
	C1437.422241,405.030884 1426.926270,404.400299 1416.553223,399.509644 
z"/>
<path fill="#FEFEFE" opacity="1.000000" stroke="none" 
	d="
M1108.725708,401.861816 
	C1093.215454,405.792969 1078.790161,404.940033 1066.331177,394.526215 
	C1054.648682,384.761322 1051.145142,371.881012 1055.323486,357.572113 
	C1059.593140,342.950165 1070.722168,335.032928 1085.316528,333.314270 
	C1093.352173,332.367920 1102.061401,333.023712 1109.869507,335.150604 
	C1124.478027,339.129974 1133.468140,351.681244 1133.974609,366.031433 
	C1134.529419,381.754395 1126.590332,394.429932 1112.373047,400.499817 
	C1111.302612,400.956848 1110.201416,401.341797 1108.725708,401.861816 
z"/>
<path fill="#FBFBFB" opacity="1.000000" stroke="none" 
	d="
M2868.807129,624.374634 
	C2872.719238,642.123108 2867.301514,656.973389 2853.676270,666.542297 
	C2841.691162,674.959473 2824.589844,675.438110 2812.151611,667.704529 
	C2797.488525,658.587769 2790.739258,641.619324 2795.118896,624.882751 
	C2799.152832,609.467712 2814.016357,597.737488 2830.314453,597.106018 
	C2847.940674,596.423096 2862.409912,606.551880 2868.807129,624.374634 
M2832.429199,668.602783 
	C2840.068848,668.164795 2847.181641,666.452209 2852.763672,660.278259 
	C2846.574463,661.731140 2843.701416,658.284241 2841.302002,653.663879 
	C2839.620605,650.426331 2837.479492,647.427490 2835.542969,644.322571 
	C2830.870361,636.829651 2830.556152,636.700745 2820.977539,638.719421 
	C2820.977539,645.640259 2820.977539,652.703369 2820.977539,659.699585 
	C2817.656494,659.699585 2814.940918,659.699585 2811.775879,659.699585 
	C2811.775879,642.762756 2811.775879,626.221008 2811.775879,608.925476 
	C2806.231445,612.881714 2802.912354,617.514099 2800.943848,623.048157 
	C2792.357666,647.184937 2810.284668,668.671570 2832.429199,668.602783 
M2860.331787,652.795959 
	C2869.363037,636.917603 2865.915283,618.884216 2851.804932,608.197144 
	C2840.572021,599.689453 2822.073730,599.593018 2813.231201,608.412720 
	C2815.199707,608.526855 2816.785645,608.678955 2818.373291,608.700378 
	C2825.360107,608.794678 2832.366699,608.554565 2839.330566,608.995789 
	C2848.260986,609.561707 2853.713867,616.180969 2852.891602,624.758911 
	C2852.176270,632.217957 2847.309326,635.673157 2840.175781,637.375122 
	C2845.189209,644.727844 2850.017822,651.809814 2855.176025,659.374756 
	C2857.083252,657.001709 2858.515869,655.219055 2860.331787,652.795959 
M2827.600586,630.070679 
	C2831.076416,630.013062 2834.576660,630.190613 2838.021484,629.833618 
	C2841.687988,629.453552 2843.500244,627.098999 2843.408203,623.354431 
	C2843.322510,619.868591 2842.310547,616.909241 2838.269775,616.753906 
	C2832.712402,616.540344 2827.140869,616.700439 2821.439453,616.700439 
	C2821.439453,621.217834 2821.439453,625.421570 2821.439453,630.070435 
	C2823.392578,630.070435 2825.019287,630.070435 2827.600586,630.070679 
z"/>
<path fill="#7A7A7D" opacity="1.000000" stroke="none" 
	d="
M1684.708496,578.554810 
	C1681.021973,592.946777 1674.951782,605.219482 1661.361450,612.185913 
	C1639.119995,623.587158 1607.908813,616.581421 1595.492920,597.311462 
	C1588.821411,586.956970 1586.526001,575.254395 1585.551636,563.185059 
	C1584.388916,548.781494 1585.165649,534.580994 1589.903076,520.805420 
	C1597.451416,498.855835 1615.083374,486.781525 1638.346069,487.525665 
	C1665.910767,488.407410 1682.117310,503.201935 1686.012939,530.984802 
	C1688.227417,546.778748 1687.942017,562.499084 1684.708496,578.554810 
z"/>
<path fill="#7B7B7E" opacity="1.000000" stroke="none" 
	d="
M454.159729,529.568665 
	C451.375153,529.568604 449.064850,529.568604 446.790741,529.568604 
	C445.409851,501.020050 472.912994,476.817291 500.207367,482.057709 
	C515.228882,484.941772 525.207703,496.426117 527.867981,514.182556 
	C528.598083,519.055786 528.812683,524.006287 529.323303,529.568726 
	C503.890533,529.568726 479.262268,529.568726 454.159729,529.568665 
z"/>
<path fill="#7B7B7E" opacity="1.000000" stroke="none" 
	d="
M2202.448975,501.622559 
	C2206.072510,510.587952 2207.395752,519.540161 2207.024414,529.181885 
	C2179.552002,529.181885 2152.349609,529.181885 2123.789551,529.181885 
	C2125.666748,522.746277 2126.781738,516.534912 2129.251465,510.919250 
	C2135.840820,495.936646 2145.684326,484.008026 2163.029541,481.504578 
	C2177.868652,479.362885 2195.054688,484.095245 2202.448975,501.622559 
z"/>
<path fill="#7B7B7E" opacity="1.000000" stroke="none" 
	d="
M2832.010254,668.602295 
	C2810.284668,668.671570 2792.357666,647.184937 2800.943848,623.048157 
	C2802.912354,617.514099 2806.231445,612.881714 2811.775879,608.925476 
	C2811.775879,626.221008 2811.775879,642.762756 2811.775879,659.699585 
	C2814.940918,659.699585 2817.656494,659.699585 2820.977539,659.699585 
	C2820.977539,652.703369 2820.977539,645.640259 2820.977539,638.719421 
	C2830.556152,636.700745 2830.870361,636.829651 2835.542969,644.322571 
	C2837.479492,647.427490 2839.620605,650.426331 2841.302002,653.663879 
	C2843.701416,658.284241 2846.574463,661.731140 2852.763672,660.278259 
	C2847.181641,666.452209 2840.068848,668.164795 2832.010254,668.602295 
z"/>
<path fill="#7B7B7E" opacity="1.000000" stroke="none" 
	d="
M2860.140137,653.116211 
	C2858.515869,655.219055 2857.083252,657.001709 2855.176025,659.374756 
	C2850.017822,651.809814 2845.189209,644.727844 2840.175781,637.375122 
	C2847.309326,635.673157 2852.176270,632.217957 2852.891602,624.758911 
	C2853.713867,616.180969 2848.260986,609.561707 2839.330566,608.995789 
	C2832.366699,608.554565 2825.360107,608.794678 2818.373291,608.700378 
	C2816.785645,608.678955 2815.199707,608.526855 2813.231201,608.412720 
	C2822.073730,599.593018 2840.572021,599.689453 2851.804932,608.197144 
	C2865.915283,618.884216 2869.363037,636.917603 2860.140137,653.116211 
z"/>
<path fill="#7B7B7E" opacity="1.000000" stroke="none" 
	d="
M2827.123047,630.070557 
	C2825.019287,630.070435 2823.392578,630.070435 2821.439453,630.070435 
	C2821.439453,625.421570 2821.439453,621.217834 2821.439453,616.700439 
	C2827.140869,616.700439 2832.712402,616.540344 2838.269775,616.753906 
	C2842.310547,616.909241 2843.322510,619.868591 2843.408203,623.354431 
	C2843.500244,627.098999 2841.687988,629.453552 2838.021484,629.833618 
	C2834.576660,630.190613 2831.076416,630.013062 2827.123047,630.070557 
z"/>
</svg>