<?xml version="1.0" standalone="no"?>
<!DOCTYPE svg PUBLIC "-//W3C//DTD SVG 20010904//EN"
 "http://www.w3.org/TR/2001/REC-SVG-20010904/DTD/svg10.dtd">
<svg version="1.0" xmlns="http://www.w3.org/2000/svg"
 width="1000.000000pt" height="1000.000000pt" viewBox="0 0 1000.000000 1000.000000"
 preserveAspectRatio="xMidYMid meet">
<metadata>
Created by potrace 1.14, written by Peter Selinger 2001-2017
</metadata>
<g transform="translate(0.000000,1000.000000) scale(0.100000,-0.100000)"
fill="#000000" stroke="none">
<path d="M840 4995 l0 -1385 4160 0 4160 0 0 1385 0 1385 -4160 0 -4160 0 0
-1385z m3090 450 c83 -43 59 -163 -36 -181 -23 -4 -45 0 -71 12 -49 25 -68 59
-59 108 12 65 98 96 166 61z m950 0 c81 -42 60 -160 -31 -180 -63 -14 -139 37
-139 94 1 81 92 126 170 86z m3160 -162 c0 -181 7 -225 29 -185 14 26 84 67
129 77 48 10 127 -4 164 -29 18 -12 44 -42 58 -66 24 -44 25 -50 28 -292 l4
-248 -96 0 -96 0 0 199 c0 211 -6 250 -45 275 -31 20 -84 20 -113 0 -49 -34
-56 -65 -59 -274 l-3 -195 -95 -3 -95 -3 0 461 0 460 95 0 95 0 0 -177z
m-6327 127 l47 -12 0 -90 c0 -82 -2 -89 -17 -83 -110 48 -223 59 -287 28 -49
-23 -64 -63 -40 -104 19 -32 56 -56 154 -99 138 -61 200 -121 221 -215 25
-110 -32 -225 -133 -273 -97 -45 -275 -51 -398 -13 l-55 17 -3 96 -3 97 69
-36 c108 -55 241 -59 296 -8 61 57 19 115 -138 189 -184 87 -231 146 -224 281
3 62 8 80 33 117 63 88 180 131 340 124 50 -2 111 -10 138 -16z m4757 -80 l0
-80 -125 0 -125 0 0 -355 0 -355 -100 0 -100 0 0 355 0 355 -120 0 -120 0 0
80 0 80 345 0 345 0 0 -80z m-4134 -180 c94 -46 144 -141 144 -277 l0 -73
-200 0 c-195 0 -200 -1 -200 -20 0 -99 141 -149 280 -100 30 11 59 19 63 20 4
0 7 -30 5 -67 l-3 -68 -55 -19 c-77 -26 -226 -27 -299 -2 -74 25 -142 94 -166
167 -26 76 -24 196 4 271 35 91 117 163 216 189 50 14 163 2 211 -21z m2237
11 c26 -10 27 -13 27 -91 0 -44 -1 -80 -3 -80 -2 0 -22 9 -45 20 -48 23 -119
26 -166 6 -132 -55 -140 -269 -12 -327 53 -24 103 -24 168 1 29 11 54 20 56
20 2 0 2 -34 0 -77 l-3 -76 -40 -15 c-24 -9 -77 -15 -135 -16 -84 0 -102 3
-155 27 -73 34 -109 67 -143 132 -24 45 -27 61 -27 155 0 95 3 111 28 162 42
85 123 147 220 168 51 11 192 5 230 -9z m952 -7 c70 -25 145 -102 168 -173 22
-69 22 -183 0 -252 -24 -75 -107 -159 -183 -184 -64 -22 -194 -26 -256 -7 -99
29 -181 114 -204 213 -18 72 -8 193 19 250 24 51 81 113 123 135 88 46 231 53
333 18z m1455 -1 c97 -43 149 -132 158 -269 l5 -84 -208 0 -207 0 6 -32 c13
-66 80 -108 171 -108 38 0 117 17 158 35 15 6 17 0 17 -59 0 -61 -2 -66 -27
-80 -16 -8 -64 -19 -107 -26 -146 -22 -255 8 -330 91 -59 66 -80 136 -74 244
10 157 82 255 223 302 54 17 160 11 215 -14z m723 6 c26 -12 27 -15 27 -91 0
-43 -2 -78 -4 -78 -2 0 -23 9 -47 20 -59 26 -124 25 -179 -2 -120 -61 -120
-255 0 -315 55 -28 104 -29 172 -3 29 11 54 20 56 20 1 0 2 -33 2 -74 l0 -74
-47 -19 c-65 -24 -199 -24 -270 0 -140 49 -215 188 -192 355 20 141 114 243
250 272 56 12 197 5 232 -11z m-4703 -78 l0 -88 -38 10 c-47 13 -82 4 -121
-29 -43 -36 -51 -77 -51 -266 l0 -168 -95 0 -95 0 0 310 0 310 95 0 95 0 1
-57 c0 -32 3 -51 6 -43 25 66 88 110 156 110 l47 0 0 -89z m260 -38 c18 -65
48 -174 65 -242 29 -111 34 -120 40 -90 6 32 61 228 106 382 l20 67 100 0 c92
0 101 -2 94 -17 -4 -10 -26 -72 -51 -138 -24 -66 -72 -196 -107 -290 l-64
-170 -113 0 -112 0 -103 290 c-57 160 -106 298 -110 308 -7 16 2 17 97 17
l105 0 33 -117z m710 -193 l0 -310 -100 0 -100 0 0 310 0 310 100 0 100 0 0
-310z m950 0 l0 -310 -100 0 -100 0 0 310 0 310 100 0 100 0 0 -310z m3816
-135 c41 -17 69 -72 59 -114 -20 -80 -118 -109 -176 -52 -37 37 -40 94 -8 135
36 46 70 54 125 31z"/>
<path d="M2143 5030 c-34 -20 -63 -66 -63 -100 0 -19 6 -20 110 -20 l110 0 0
30 c0 42 -20 79 -51 96 -38 19 -68 18 -106 -6z"/>
<path d="M5304 5012 c-86 -55 -95 -254 -13 -315 63 -46 160 -28 199 35 44 73
34 212 -20 263 -39 38 -120 46 -166 17z"/>
<path d="M6790 5024 c-32 -28 -60 -73 -60 -99 0 -13 18 -15 116 -15 l117 0 -6
36 c-16 95 -100 134 -167 78z"/>
<path d="M8650 4700 c0 -5 17 -10 38 -10 57 0 79 -31 46 -65 -15 -14 -15 -18
1 -41 22 -34 45 -16 45 38 0 54 -34 88 -90 88 -22 0 -40 -4 -40 -10z"/>
<path d="M8612 4670 c-43 -70 35 -164 111 -134 13 5 12 11 -6 39 -28 44 -57
46 -57 5 0 -16 -4 -30 -10 -30 -6 0 -10 30 -10 70 0 72 -6 84 -28 50z"/>
<path d="M8660 4655 c0 -10 10 -15 30 -15 20 0 30 5 30 15 0 10 -10 15 -30 15
-20 0 -30 -5 -30 -15z"/>
</g>
</svg>
